<?xml version="1.0" encoding="UTF-8" standalone="no"?><svg xmlns="http://www.w3.org/2000/svg" xmlns:xlink="http://www.w3.org/1999/xlink" contentScriptType="application/ecmascript" contentStyleType="text/css" height="514px" preserveAspectRatio="none" style="width:1127px;height:514px;background:#FFFFFF;" version="1.1" viewBox="0 0 1127 514" width="1127px" zoomAndPan="magnify"><defs><filter height="300%" id="faqvqoeaweobf" width="300%" x="-1" y="-1"><feGaussianBlur result="blurOut" stdDeviation="2.0"/><feColorMatrix in="blurOut" result="blurOut2" type="matrix" values="0 0 0 0 0 0 0 0 0 0 0 0 0 0 0 0 0 0 .4 0"/><feOffset dx="4.0" dy="4.0" in="blurOut2" result="blurOut3"/><feBlend in="SourceGraphic" in2="blurOut3" mode="normal"/></filter></defs><g><rect fill="#FFFFFF" filter="url(#faqvqoeaweobf)" height="396.3906" style="stroke:#A80036;stroke-width:1.0;" width="10" x="31.5" y="50.2969"/><rect fill="#FFFFFF" filter="url(#faqvqoeaweobf)" height="309.8594" style="stroke:#A80036;stroke-width:1.0;" width="10" x="307.5" y="86.5625"/><rect fill="#FFFFFF" filter="url(#faqvqoeaweobf)" height="221.3281" style="stroke:#A80036;stroke-width:1.0;" width="10" x="562.5" y="130.8281"/><rect fill="#FFFFFF" filter="url(#faqvqoeaweobf)" height="132.7969" style="stroke:#A80036;stroke-width:1.0;" width="10" x="817.5" y="175.0938"/><rect fill="#FFFFFF" filter="url(#faqvqoeaweobf)" height="44.2656" style="stroke:#A80036;stroke-width:1.0;" width="10" x="1088.5" y="219.3594"/><line style="stroke:#A80036;stroke-width:1.0;stroke-dasharray:5.0,5.0;" x1="36" x2="36" y1="40.2969" y2="471.6875"/><line style="stroke:#A80036;stroke-width:1.0;stroke-dasharray:5.0,5.0;" x1="312.5" x2="312.5" y1="40.2969" y2="471.6875"/><line style="stroke:#A80036;stroke-width:1.0;stroke-dasharray:5.0,5.0;" x1="567.5" x2="567.5" y1="40.2969" y2="471.6875"/><line style="stroke:#A80036;stroke-width:1.0;stroke-dasharray:5.0,5.0;" x1="822.5" x2="822.5" y1="40.2969" y2="471.6875"/><line style="stroke:#A80036;stroke-width:1.0;stroke-dasharray:5.0,5.0;" x1="1093.5" x2="1093.5" y1="40.2969" y2="471.6875"/><rect fill="#FEFECE" filter="url(#faqvqoeaweobf)" height="30.2969" style="stroke:#A80036;stroke-width:1.5;" width="59" x="5" y="5"/><text fill="#000000" font-family="sans-serif" font-size="14" lengthAdjust="spacing" textLength="45" x="12" y="24.9951">SwiftUI</text><rect fill="#FEFECE" filter="url(#faqvqoeaweobf)" height="30.2969" style="stroke:#A80036;stroke-width:1.5;" width="59" x="5" y="470.6875"/><text fill="#000000" font-family="sans-serif" font-size="14" lengthAdjust="spacing" textLength="45" x="12" y="490.6826">SwiftUI</text><rect fill="#FEFECE" filter="url(#faqvqoeaweobf)" height="30.2969" style="stroke:#A80036;stroke-width:1.5;" width="102" x="259.5" y="5"/><text fill="#000000" font-family="sans-serif" font-size="14" lengthAdjust="spacing" textLength="88" x="266.5" y="24.9951">ContentView</text><rect fill="#FEFECE" filter="url(#faqvqoeaweobf)" height="30.2969" style="stroke:#A80036;stroke-width:1.5;" width="102" x="259.5" y="470.6875"/><text fill="#000000" font-family="sans-serif" font-size="14" lengthAdjust="spacing" textLength="88" x="266.5" y="490.6826">ContentView</text><rect fill="#FEFECE" filter="url(#faqvqoeaweobf)" height="30.2969" style="stroke:#A80036;stroke-width:1.5;" width="70" x="530.5" y="5"/><text fill="#000000" font-family="sans-serif" font-size="14" lengthAdjust="spacing" textLength="56" x="537.5" y="24.9951">Padding</text><rect fill="#FEFECE" filter="url(#faqvqoeaweobf)" height="30.2969" style="stroke:#A80036;stroke-width:1.5;" width="70" x="530.5" y="470.6875"/><text fill="#000000" font-family="sans-serif" font-size="14" lengthAdjust="spacing" textLength="56" x="537.5" y="490.6826">Padding</text><rect fill="#FEFECE" filter="url(#faqvqoeaweobf)" height="30.2969" style="stroke:#A80036;stroke-width:1.5;" width="98" x="771.5" y="5"/><text fill="#000000" font-family="sans-serif" font-size="14" lengthAdjust="spacing" textLength="84" x="778.5" y="24.9951">Background</text><rect fill="#FEFECE" filter="url(#faqvqoeaweobf)" height="30.2969" style="stroke:#A80036;stroke-width:1.5;" width="98" x="771.5" y="470.6875"/><text fill="#000000" font-family="sans-serif" font-size="14" lengthAdjust="spacing" textLength="84" x="778.5" y="490.6826">Background</text><rect fill="#FEFECE" filter="url(#faqvqoeaweobf)" height="30.2969" style="stroke:#A80036;stroke-width:1.5;" width="44" x="1069.5" y="5"/><text fill="#000000" font-family="sans-serif" font-size="14" lengthAdjust="spacing" textLength="30" x="1076.5" y="24.9951">Text</text><rect fill="#FEFECE" filter="url(#faqvqoeaweobf)" height="30.2969" style="stroke:#A80036;stroke-width:1.5;" width="44" x="1069.5" y="470.6875"/><text fill="#000000" font-family="sans-serif" font-size="14" lengthAdjust="spacing" textLength="30" x="1076.5" y="490.6826">Text</text><rect fill="#FFFFFF" filter="url(#faqvqoeaweobf)" height="396.3906" style="stroke:#A80036;stroke-width:1.0;" width="10" x="31.5" y="50.2969"/><rect fill="#FFFFFF" filter="url(#faqvqoeaweobf)" height="309.8594" style="stroke:#A80036;stroke-width:1.0;" width="10" x="307.5" y="86.5625"/><rect fill="#FFFFFF" filter="url(#faqvqoeaweobf)" height="221.3281" style="stroke:#A80036;stroke-width:1.0;" width="10" x="562.5" y="130.8281"/><rect fill="#FFFFFF" filter="url(#faqvqoeaweobf)" height="132.7969" style="stroke:#A80036;stroke-width:1.0;" width="10" x="817.5" y="175.0938"/><rect fill="#FFFFFF" filter="url(#faqvqoeaweobf)" height="44.2656" style="stroke:#A80036;stroke-width:1.0;" width="10" x="1088.5" y="219.3594"/><polygon fill="#A80036" points="295.5,82.5625,305.5,86.5625,295.5,90.5625,299.5,86.5625" style="stroke:#A80036;stroke-width:1.0;"/><line style="stroke:#A80036;stroke-width:1.0;" x1="41.5" x2="301.5" y1="86.5625" y2="86.5625"/><text fill="#000000" font-family="sans-serif" font-size="13" lengthAdjust="spacing" textLength="52" x="48.5" y="66.3638">整个屏幕</text><text fill="#000000" font-family="sans-serif" font-size="13" lengthAdjust="spacing" textLength="226" x="48.5" y="81.4966">(Parent View 给 Child View 建议尺寸)</text><polygon fill="#A80036" points="550.5,126.8281,560.5,130.8281,550.5,134.8281,554.5,130.8281" style="stroke:#A80036;stroke-width:1.0;"/><line style="stroke:#A80036;stroke-width:1.0;" x1="317.5" x2="556.5" y1="130.8281" y2="130.8281"/><text fill="#000000" font-family="sans-serif" font-size="13" lengthAdjust="spacing" textLength="52" x="324.5" y="110.6294">整个屏幕</text><text fill="#000000" font-family="sans-serif" font-size="13" lengthAdjust="spacing" textLength="226" x="324.5" y="125.7622">(Parent View 给 Child View 建议尺寸)</text><polygon fill="#A80036" points="805.5,171.0938,815.5,175.0938,805.5,179.0938,809.5,175.0938" style="stroke:#A80036;stroke-width:1.0;"/><line style="stroke:#A80036;stroke-width:1.0;" x1="572.5" x2="811.5" y1="175.0938" y2="175.0938"/><text fill="#000000" font-family="sans-serif" font-size="13" lengthAdjust="spacing" textLength="52" x="579.5" y="154.895">整个屏幕</text><text fill="#000000" font-family="sans-serif" font-size="13" lengthAdjust="spacing" textLength="226" x="579.5" y="170.0278">(Parent View 给 Child View 建议尺寸)</text><polygon fill="#A80036" points="1076.5,215.3594,1086.5,219.3594,1076.5,223.3594,1080.5,219.3594" style="stroke:#A80036;stroke-width:1.0;"/><line style="stroke:#A80036;stroke-width:1.0;" x1="827.5" x2="1082.5" y1="219.3594" y2="219.3594"/><text fill="#000000" font-family="sans-serif" font-size="13" lengthAdjust="spacing" textLength="52" x="834.5" y="199.1606">整个屏幕</text><text fill="#000000" font-family="sans-serif" font-size="13" lengthAdjust="spacing" textLength="226" x="834.5" y="214.2935">(Parent View 给 Child View 建议尺寸)</text><polygon fill="#A80036" points="838.5,259.625,828.5,263.625,838.5,267.625,834.5,263.625" style="stroke:#A80036;stroke-width:1.0;"/><line style="stroke:#A80036;stroke-width:1.0;stroke-dasharray:2.0,2.0;" x1="832.5" x2="1092.5" y1="263.625" y2="263.625"/><text fill="#000000" font-family="sans-serif" font-size="13" lengthAdjust="spacing" textLength="237" x="844.5" y="243.4263">根据字体设置，只需要 xxx 大小就可以了</text><text fill="#000000" font-family="sans-serif" font-size="13" lengthAdjust="spacing" textLength="195" x="844.5" y="258.5591">(Child View 选择适合自己的尺寸)</text><polygon fill="#A80036" points="583.5,303.8906,573.5,307.8906,583.5,311.8906,579.5,307.8906" style="stroke:#A80036;stroke-width:1.0;"/><line style="stroke:#A80036;stroke-width:1.0;stroke-dasharray:2.0,2.0;" x1="577.5" x2="821.5" y1="307.8906" y2="307.8906"/><text fill="#FF0000" font-family="sans-serif" font-size="13" lengthAdjust="spacing" textLength="146" x="589.5" y="287.6919">只需要 xxx 大小就可以了</text><text fill="#000000" font-family="sans-serif" font-size="13" lengthAdjust="spacing" textLength="195" x="589.5" y="302.8247">(Child View 选择适合自己的尺寸)</text><polygon fill="#A80036" points="328.5,348.1563,318.5,352.1563,328.5,356.1563,324.5,352.1563" style="stroke:#A80036;stroke-width:1.0;"/><line style="stroke:#A80036;stroke-width:1.0;stroke-dasharray:2.0,2.0;" x1="322.5" x2="566.5" y1="352.1563" y2="352.1563"/><text fill="#FF0000" font-family="sans-serif" font-size="13" lengthAdjust="spacing" textLength="157" x="334.5" y="331.9575">我需要 xxx 大小加 20 像素</text><text fill="#000000" font-family="sans-serif" font-size="13" lengthAdjust="spacing" textLength="195" x="334.5" y="347.0903">(Child View 选择适合自己的尺寸)</text><polygon fill="#A80036" points="52.5,392.4219,42.5,396.4219,52.5,400.4219,48.5,396.4219" style="stroke:#A80036;stroke-width:1.0;"/><line style="stroke:#A80036;stroke-width:1.0;stroke-dasharray:2.0,2.0;" x1="46.5" x2="311.5" y1="396.4219" y2="396.4219"/><text fill="#000000" font-family="sans-serif" font-size="13" lengthAdjust="spacing" textLength="157" x="58.5" y="376.2231">我需要 xxx 大小加 20 像素</text><text fill="#000000" font-family="sans-serif" font-size="13" lengthAdjust="spacing" textLength="195" x="58.5" y="391.356">(Child View 选择适合自己的尺寸)</text><line style="stroke:#A80036;stroke-width:1.0;" x1="41.5" x2="83.5" y1="445.6875" y2="445.6875"/><line style="stroke:#A80036;stroke-width:1.0;" x1="83.5" x2="83.5" y1="445.6875" y2="458.6875"/><line style="stroke:#A80036;stroke-width:1.0;" x1="36.5" x2="83.5" y1="458.6875" y2="458.6875"/><polygon fill="#A80036" points="46.5,454.6875,36.5,458.6875,46.5,462.6875,42.5,458.6875" style="stroke:#A80036;stroke-width:1.0;"/><text fill="#000000" font-family="sans-serif" font-size="13" lengthAdjust="spacing" textLength="169" x="48.5" y="425.4888">好的，那我把你放到屏幕中心</text><text fill="#000000" font-family="sans-serif" font-size="13" lengthAdjust="spacing" textLength="252" x="48.5" y="440.6216">(Parent View 将 Child View 放到合适位置)</text></g></svg>