<?xml version="1.0" encoding="UTF-8" standalone="no"?><svg xmlns="http://www.w3.org/2000/svg" xmlns:xlink="http://www.w3.org/1999/xlink" contentScriptType="application/ecmascript" contentStyleType="text/css" height="411px" preserveAspectRatio="none" style="width:851px;height:411px;background:#FFFFFF;" version="1.1" viewBox="0 0 851 411" width="851px" zoomAndPan="magnify"><defs><filter height="300%" id="fk87swoyw1ecs" width="300%" x="-1" y="-1"><feGaussianBlur result="blurOut" stdDeviation="2.0"/><feColorMatrix in="blurOut" result="blurOut2" type="matrix" values="0 0 0 0 0 0 0 0 0 0 0 0 0 0 0 0 0 0 .4 0"/><feOffset dx="4.0" dy="4.0" in="blurOut2" result="blurOut3"/><feBlend in="SourceGraphic" in2="blurOut3" mode="normal"/></filter></defs><g><rect fill="#FFFFFF" filter="url(#fk87swoyw1ecs)" height="292.7266" style="stroke:#A80036;stroke-width:1.0;" width="10" x="31.5" y="50.2969"/><rect fill="#FFFFFF" filter="url(#fk87swoyw1ecs)" height="221.3281" style="stroke:#A80036;stroke-width:1.0;" width="10" x="286.5" y="86.5625"/><rect fill="#FFFFFF" filter="url(#fk87swoyw1ecs)" height="132.7969" style="stroke:#A80036;stroke-width:1.0;" width="10" x="541.5" y="130.8281"/><rect fill="#FFFFFF" filter="url(#fk87swoyw1ecs)" height="44.2656" style="stroke:#A80036;stroke-width:1.0;" width="10" x="812.5" y="175.0938"/><line style="stroke:#A80036;stroke-width:1.0;stroke-dasharray:5.0,5.0;" x1="36" x2="36" y1="40.2969" y2="368.0234"/><line style="stroke:#A80036;stroke-width:1.0;stroke-dasharray:5.0,5.0;" x1="291.5" x2="291.5" y1="40.2969" y2="368.0234"/><line style="stroke:#A80036;stroke-width:1.0;stroke-dasharray:5.0,5.0;" x1="546.5" x2="546.5" y1="40.2969" y2="368.0234"/><line style="stroke:#A80036;stroke-width:1.0;stroke-dasharray:5.0,5.0;" x1="817.5" x2="817.5" y1="40.2969" y2="368.0234"/><rect fill="#FEFECE" filter="url(#fk87swoyw1ecs)" height="30.2969" style="stroke:#A80036;stroke-width:1.5;" width="59" x="5" y="5"/><text fill="#000000" font-family="sans-serif" font-size="14" lengthAdjust="spacing" textLength="45" x="12" y="24.9951">SwiftUI</text><rect fill="#FEFECE" filter="url(#fk87swoyw1ecs)" height="30.2969" style="stroke:#A80036;stroke-width:1.5;" width="59" x="5" y="367.0234"/><text fill="#000000" font-family="sans-serif" font-size="14" lengthAdjust="spacing" textLength="45" x="12" y="387.0186">SwiftUI</text><rect fill="#FEFECE" filter="url(#fk87swoyw1ecs)" height="30.2969" style="stroke:#A80036;stroke-width:1.5;" width="102" x="238.5" y="5"/><text fill="#000000" font-family="sans-serif" font-size="14" lengthAdjust="spacing" textLength="88" x="245.5" y="24.9951">ContentView</text><rect fill="#FEFECE" filter="url(#fk87swoyw1ecs)" height="30.2969" style="stroke:#A80036;stroke-width:1.5;" width="102" x="238.5" y="367.0234"/><text fill="#000000" font-family="sans-serif" font-size="14" lengthAdjust="spacing" textLength="88" x="245.5" y="387.0186">ContentView</text><rect fill="#FEFECE" filter="url(#fk87swoyw1ecs)" height="30.2969" style="stroke:#A80036;stroke-width:1.5;" width="98" x="495.5" y="5"/><text fill="#000000" font-family="sans-serif" font-size="14" lengthAdjust="spacing" textLength="84" x="502.5" y="24.9951">Background</text><rect fill="#FEFECE" filter="url(#fk87swoyw1ecs)" height="30.2969" style="stroke:#A80036;stroke-width:1.5;" width="98" x="495.5" y="367.0234"/><text fill="#000000" font-family="sans-serif" font-size="14" lengthAdjust="spacing" textLength="84" x="502.5" y="387.0186">Background</text><rect fill="#FEFECE" filter="url(#fk87swoyw1ecs)" height="30.2969" style="stroke:#A80036;stroke-width:1.5;" width="44" x="793.5" y="5"/><text fill="#000000" font-family="sans-serif" font-size="14" lengthAdjust="spacing" textLength="30" x="800.5" y="24.9951">Text</text><rect fill="#FEFECE" filter="url(#fk87swoyw1ecs)" height="30.2969" style="stroke:#A80036;stroke-width:1.5;" width="44" x="793.5" y="367.0234"/><text fill="#000000" font-family="sans-serif" font-size="14" lengthAdjust="spacing" textLength="30" x="800.5" y="387.0186">Text</text><rect fill="#FFFFFF" filter="url(#fk87swoyw1ecs)" height="292.7266" style="stroke:#A80036;stroke-width:1.0;" width="10" x="31.5" y="50.2969"/><rect fill="#FFFFFF" filter="url(#fk87swoyw1ecs)" height="221.3281" style="stroke:#A80036;stroke-width:1.0;" width="10" x="286.5" y="86.5625"/><rect fill="#FFFFFF" filter="url(#fk87swoyw1ecs)" height="132.7969" style="stroke:#A80036;stroke-width:1.0;" width="10" x="541.5" y="130.8281"/><rect fill="#FFFFFF" filter="url(#fk87swoyw1ecs)" height="44.2656" style="stroke:#A80036;stroke-width:1.0;" width="10" x="812.5" y="175.0938"/><polygon fill="#A80036" points="274.5,82.5625,284.5,86.5625,274.5,90.5625,278.5,86.5625" style="stroke:#A80036;stroke-width:1.0;"/><line style="stroke:#A80036;stroke-width:1.0;" x1="41.5" x2="280.5" y1="86.5625" y2="86.5625"/><text fill="#000000" font-family="sans-serif" font-size="13" lengthAdjust="spacing" textLength="52" x="48.5" y="66.3638">整个屏幕</text><text fill="#000000" font-family="sans-serif" font-size="13" lengthAdjust="spacing" textLength="226" x="48.5" y="81.4966">(Parent View 给 Child View 建议尺寸)</text><polygon fill="#A80036" points="529.5,126.8281,539.5,130.8281,529.5,134.8281,533.5,130.8281" style="stroke:#A80036;stroke-width:1.0;"/><line style="stroke:#A80036;stroke-width:1.0;" x1="296.5" x2="535.5" y1="130.8281" y2="130.8281"/><text fill="#000000" font-family="sans-serif" font-size="13" lengthAdjust="spacing" textLength="52" x="303.5" y="110.6294">整个屏幕</text><text fill="#000000" font-family="sans-serif" font-size="13" lengthAdjust="spacing" textLength="226" x="303.5" y="125.7622">(Parent View 给 Child View 建议尺寸)</text><polygon fill="#A80036" points="800.5,171.0938,810.5,175.0938,800.5,179.0938,804.5,175.0938" style="stroke:#A80036;stroke-width:1.0;"/><line style="stroke:#A80036;stroke-width:1.0;" x1="551.5" x2="806.5" y1="175.0938" y2="175.0938"/><text fill="#000000" font-family="sans-serif" font-size="13" lengthAdjust="spacing" textLength="52" x="558.5" y="154.895">整个屏幕</text><text fill="#000000" font-family="sans-serif" font-size="13" lengthAdjust="spacing" textLength="226" x="558.5" y="170.0278">(Parent View 给 Child View 建议尺寸)</text><polygon fill="#A80036" points="562.5,215.3594,552.5,219.3594,562.5,223.3594,558.5,219.3594" style="stroke:#A80036;stroke-width:1.0;"/><line style="stroke:#A80036;stroke-width:1.0;stroke-dasharray:2.0,2.0;" x1="556.5" x2="816.5" y1="219.3594" y2="219.3594"/><text fill="#000000" font-family="sans-serif" font-size="13" lengthAdjust="spacing" textLength="237" x="568.5" y="199.1606">根据字体设置，只需要 xxx 大小就可以了</text><text fill="#000000" font-family="sans-serif" font-size="13" lengthAdjust="spacing" textLength="195" x="568.5" y="214.2935">(Child View 选择适合自己的尺寸)</text><polygon fill="#A80036" points="307.5,259.625,297.5,263.625,307.5,267.625,303.5,263.625" style="stroke:#A80036;stroke-width:1.0;"/><line style="stroke:#A80036;stroke-width:1.0;stroke-dasharray:2.0,2.0;" x1="301.5" x2="545.5" y1="263.625" y2="263.625"/><text fill="#000000" font-family="sans-serif" font-size="13" lengthAdjust="spacing" textLength="146" x="313.5" y="243.4263">只需要 xxx 大小就可以了</text><text fill="#000000" font-family="sans-serif" font-size="13" lengthAdjust="spacing" textLength="195" x="313.5" y="258.5591">(Child View 选择适合自己的尺寸)</text><polygon fill="#A80036" points="52.5,303.8906,42.5,307.8906,52.5,311.8906,48.5,307.8906" style="stroke:#A80036;stroke-width:1.0;"/><line style="stroke:#A80036;stroke-width:1.0;stroke-dasharray:2.0,2.0;" x1="46.5" x2="290.5" y1="307.8906" y2="307.8906"/><text fill="#000000" font-family="sans-serif" font-size="13" lengthAdjust="spacing" textLength="146" x="58.5" y="287.6919">只需要 xxx 大小就可以了</text><text fill="#000000" font-family="sans-serif" font-size="13" lengthAdjust="spacing" textLength="195" x="58.5" y="302.8247">(Child View 选择适合自己的尺寸)</text><line style="stroke:#A80036;stroke-width:1.0;" x1="41.5" x2="83.5" y1="342.0234" y2="342.0234"/><line style="stroke:#A80036;stroke-width:1.0;" x1="83.5" x2="83.5" y1="342.0234" y2="355.0234"/><line style="stroke:#A80036;stroke-width:1.0;" x1="36.5" x2="83.5" y1="355.0234" y2="355.0234"/><polygon fill="#A80036" points="46.5,351.0234,36.5,355.0234,46.5,359.0234,42.5,355.0234" style="stroke:#A80036;stroke-width:1.0;"/><text fill="#000000" font-family="sans-serif" font-size="13" lengthAdjust="spacing" textLength="169" x="48.5" y="336.9575">好的，那我把你放到屏幕中心</text></g></svg>