<?xml version="1.0" encoding="UTF-8" standalone="no"?>
<!DOCTYPE svg PUBLIC "-//W3C//DTD SVG 1.1//EN"
 "http://www.w3.org/Graphics/SVG/1.1/DTD/svg11.dtd">
<!-- Generated by graphviz version 2.40.1 (20161225.0304)
 -->
<!-- Title: finite_state_machine Pages: 1 -->
<svg width="452pt" height="261pt"
 viewBox="0.00 0.00 452.40 261.32" xmlns="http://www.w3.org/2000/svg" xmlns:xlink="http://www.w3.org/1999/xlink">
<g id="graph0" class="graph" transform="scale(1 1) rotate(0) translate(4 257.3228)">
<title>finite_state_machine</title>
<polygon fill="#ffffff" stroke="transparent" points="-4,4 -4,-257.3228 448.3986,-257.3228 448.3986,4 -4,4"/>
<!-- Image -->
<g id="node1" class="node">
<title>Image</title>
<ellipse fill="none" stroke="#000000" cx="380.0424" cy="-203.5288" rx="49.5889" ry="49.5889"/>
<text text-anchor="middle" x="380.0424" y="-207.7288" font-family="Times,serif" font-size="14.00" fill="#000000">Image</text>
<text text-anchor="middle" x="380.0424" y="-190.9288" font-family="Times,serif" font-size="14.00" fill="#000000">(SwiftUI)</text>
</g>
<!-- UIImage -->
<g id="node2" class="node">
<title>UIImage</title>
<ellipse fill="none" stroke="#000000" cx="46.4906" cy="-100.5288" rx="46.4811" ry="46.4811"/>
<text text-anchor="middle" x="46.4906" y="-104.7288" font-family="Times,serif" font-size="14.00" fill="#000000">UIImage</text>
<text text-anchor="middle" x="46.4906" y="-87.9288" font-family="Times,serif" font-size="14.00" fill="#000000">(UIKit)</text>
</g>
<!-- UIImage&#45;&gt;Image -->
<g id="edge6" class="edge">
<title>UIImage&#45;&gt;Image</title>
<path fill="none" stroke="#000000" d="M73.4918,-138.5802C87.8737,-155.724 107.1087,-174.365 128.9811,-184.5288 189.5573,-212.6776 267.2724,-213.9911 320.0808,-210.4766"/>
<polygon fill="#000000" stroke="#000000" points="320.5855,-213.9488 330.2979,-209.7158 320.0656,-206.9681 320.5855,-213.9488"/>
</g>
<!-- CGImage -->
<g id="node3" class="node">
<title>CGImage</title>
<ellipse fill="none" stroke="#000000" cx="204.3337" cy="-100.5288" rx="75.2054" ry="75.2054"/>
<text text-anchor="middle" x="204.3337" y="-104.7288" font-family="Times,serif" font-size="14.00" fill="#000000">CGImage</text>
<text text-anchor="middle" x="204.3337" y="-87.9288" font-family="Times,serif" font-size="14.00" fill="#000000">(Core Graphics)</text>
</g>
<!-- UIImage&#45;&gt;CGImage -->
<g id="edge1" class="edge">
<title>UIImage&#45;&gt;CGImage</title>
<path fill="none" stroke="#000000" d="M92.5697,-94.3276C100.9,-94.0328 109.8245,-93.8567 118.8643,-93.7995"/>
<polygon fill="#000000" stroke="#000000" points="119.099,-97.2992 129.0941,-93.7853 119.0893,-90.2992 119.099,-97.2992"/>
</g>
<!-- CIImage -->
<g id="node4" class="node">
<title>CIImage</title>
<ellipse fill="none" stroke="#000000" cx="380.0424" cy="-71.5288" rx="64.2127" ry="64.2127"/>
<text text-anchor="middle" x="380.0424" y="-75.7288" font-family="Times,serif" font-size="14.00" fill="#000000">CIImage</text>
<text text-anchor="middle" x="380.0424" y="-58.9288" font-family="Times,serif" font-size="14.00" fill="#000000">(Core Image)</text>
</g>
<!-- UIImage&#45;&gt;CIImage -->
<g id="edge3" class="edge">
<title>UIImage&#45;&gt;CIImage</title>
<path fill="none" stroke="#000000" d="M72.8082,-62.191C87.1505,-44.7509 106.5521,-25.9385 128.9811,-16.5288 190.7458,9.3836 214.7996,.0859 279.6863,-16.5288 292.4163,-19.7884 305.2673,-25.035 317.327,-31.0243"/>
<polygon fill="#000000" stroke="#000000" points="315.8925,-34.2231 326.3798,-35.7285 319.1202,-28.0117 315.8925,-34.2231"/>
</g>
<!-- CGImage&#45;&gt;Image -->
<g id="edge7" class="edge">
<title>CGImage&#45;&gt;Image</title>
<path fill="none" stroke="#000000" d="M269.7611,-138.8822C289.0467,-150.1873 309.8775,-162.3983 328.1863,-173.1308"/>
<polygon fill="#000000" stroke="#000000" points="326.5568,-176.2326 336.9538,-178.2703 330.0968,-170.1937 326.5568,-176.2326"/>
</g>
<!-- CGImage&#45;&gt;UIImage -->
<g id="edge2" class="edge">
<title>CGImage&#45;&gt;UIImage</title>
<path fill="none" stroke="#000000" d="M129.0941,-107.2722C120.2301,-107.3037 111.3039,-107.2214 102.7643,-107.0254"/>
<polygon fill="#000000" stroke="#000000" points="102.6669,-103.5212 92.5697,-106.7299 102.464,-110.5183 102.6669,-103.5212"/>
</g>
<!-- CGImage&#45;&gt;CIImage -->
<g id="edge4" class="edge">
<title>CGImage&#45;&gt;CIImage</title>
<path fill="none" stroke="#000000" d="M277.5777,-81.7738C286.8441,-80.1374 296.3336,-78.5669 305.6182,-77.1328"/>
<polygon fill="#000000" stroke="#000000" points="306.2237,-80.5812 315.5923,-75.6336 305.1831,-73.6589 306.2237,-80.5812"/>
</g>
<!-- CIImage&#45;&gt;CGImage -->
<g id="edge5" class="edge">
<title>CIImage&#45;&gt;CGImage</title>
<path fill="none" stroke="#000000" d="M317.8744,-88.2761C308.6886,-89.9855 299.0922,-91.6562 289.5375,-93.2135"/>
<polygon fill="#000000" stroke="#000000" points="288.9405,-89.7644 279.6147,-94.7921 290.0404,-96.6774 288.9405,-89.7644"/>
</g>
</g>
</svg>
