<?xml version="1.0" encoding="UTF-8" standalone="no"?>
<!DOCTYPE svg PUBLIC "-//W3C//DTD SVG 1.1//EN"
 "http://www.w3.org/Graphics/SVG/1.1/DTD/svg11.dtd">
<!-- Generated by graphviz version 2.40.1 (20161225.0304)
 -->
<!-- Title: finite_state_machine Pages: 1 -->
<svg width="466pt" height="282pt"
 viewBox="0.00 0.00 466.40 282.49" xmlns="http://www.w3.org/2000/svg" xmlns:xlink="http://www.w3.org/1999/xlink">
<g id="graph0" class="graph" transform="scale(1 1) rotate(0) translate(4 278.4908)">
<title>finite_state_machine</title>
<polygon fill="#ffffff" stroke="transparent" points="-4,4 -4,-278.4908 462.3986,-278.4908 462.3986,4 -4,4"/>
<!-- Image -->
<g id="node1" class="node">
<title>Image</title>
<ellipse fill="none" stroke="#000000" cx="394.0424" cy="-224.6968" rx="49.5889" ry="49.5889"/>
<text text-anchor="middle" x="394.0424" y="-228.8968" font-family="Times,serif" font-size="14.00" fill="#000000">Image</text>
<text text-anchor="middle" x="394.0424" y="-212.0968" font-family="Times,serif" font-size="14.00" fill="#000000">(SwiftUI)</text>
</g>
<!-- UIImage -->
<g id="node2" class="node">
<title>UIImage</title>
<ellipse fill="none" stroke="#000000" cx="46.4906" cy="-118.6968" rx="46.4811" ry="46.4811"/>
<text text-anchor="middle" x="46.4906" y="-122.8968" font-family="Times,serif" font-size="14.00" fill="#000000">UIImage</text>
<text text-anchor="middle" x="46.4906" y="-106.0968" font-family="Times,serif" font-size="14.00" fill="#000000">(UIKit)</text>
</g>
<!-- UIImage&#45;&gt;Image -->
<g id="edge6" class="edge">
<title>UIImage&#45;&gt;Image</title>
<path fill="none" stroke="#ff0000" d="M75.2565,-155.3792C91.1519,-172.8572 112.4323,-192.1973 135.9811,-202.6968 199.2545,-230.9076 279.8392,-233.1304 333.9799,-230.428"/>
<polygon fill="#ff0000" stroke="#ff0000" points="334.3224,-233.9143 344.1066,-229.8498 333.9233,-226.9256 334.3224,-233.9143"/>
<text text-anchor="middle" x="211.3337" y="-234.8968" font-family="Times,serif" font-size="14.00" fill="#ff0000">4</text>
</g>
<!-- CGImage -->
<g id="node3" class="node">
<title>CGImage</title>
<ellipse fill="none" stroke="#000000" cx="211.3337" cy="-118.6968" rx="75.2054" ry="75.2054"/>
<text text-anchor="middle" x="211.3337" y="-122.8968" font-family="Times,serif" font-size="14.00" fill="#000000">CGImage</text>
<text text-anchor="middle" x="211.3337" y="-106.0968" font-family="Times,serif" font-size="14.00" fill="#000000">(Core Graphics)</text>
</g>
<!-- UIImage&#45;&gt;CGImage -->
<g id="edge1" class="edge">
<title>UIImage&#45;&gt;CGImage</title>
<path fill="none" stroke="#000000" d="M92.9843,-120.3107C99.038,-120.4703 105.157,-120.6065 110.9811,-120.6968 115.7917,-120.7713 120.7319,-120.8066 125.7178,-120.8101"/>
<polygon fill="#000000" stroke="#000000" points="126.0013,-124.3092 135.9893,-120.7751 125.9774,-117.3093 126.0013,-124.3092"/>
</g>
<!-- CIImage -->
<g id="node4" class="node">
<title>CIImage</title>
<ellipse fill="none" stroke="#000000" cx="394.0424" cy="-86.6968" rx="64.2127" ry="64.2127"/>
<text text-anchor="middle" x="394.0424" y="-90.8968" font-family="Times,serif" font-size="14.00" fill="#000000">CIImage</text>
<text text-anchor="middle" x="394.0424" y="-74.0968" font-family="Times,serif" font-size="14.00" fill="#000000">(Core Image)</text>
</g>
<!-- UIImage&#45;&gt;CIImage -->
<g id="edge3" class="edge">
<title>UIImage&#45;&gt;CIImage</title>
<path fill="none" stroke="#ff0000" d="M70.0212,-78.5412C85.589,-56.1666 108.2327,-30.3678 135.9811,-17.8968 197.0747,9.5606 222.4073,.9326 286.6863,-17.8968 303.4685,-22.8128 320.116,-31.2461 335.1139,-40.5578"/>
<polygon fill="#ff0000" stroke="#ff0000" points="333.4414,-43.6439 343.7424,-46.1219 337.2351,-37.761 333.4414,-43.6439"/>
<text text-anchor="middle" x="211.3337" y="-22.8968" font-family="Times,serif" font-size="14.00" fill="#ff0000">1</text>
</g>
<!-- CGImage&#45;&gt;Image -->
<g id="edge7" class="edge">
<title>CGImage&#45;&gt;Image</title>
<path fill="none" stroke="#000000" d="M276.5219,-156.5163C298.0366,-168.9982 321.6658,-182.7069 342.0585,-194.5379"/>
<polygon fill="#000000" stroke="#000000" points="340.4757,-197.6659 350.8818,-199.6568 343.9885,-191.6111 340.4757,-197.6659"/>
</g>
<!-- CGImage&#45;&gt;UIImage -->
<g id="edge2" class="edge">
<title>CGImage&#45;&gt;UIImage</title>
<path fill="none" stroke="#ff0000" d="M138.2862,-99.3569C129.113,-98.597 119.8426,-98.6315 110.9811,-99.8968 107.5879,-100.3813 104.1238,-101.0023 100.6498,-101.7222"/>
<polygon fill="#ff0000" stroke="#ff0000" points="99.8378,-98.3175 90.8838,-103.9812 101.4154,-105.1374 99.8378,-98.3175"/>
<text text-anchor="middle" x="114.4811" y="-103.8968" font-family="Times,serif" font-size="14.00" fill="#ff0000">3</text>
</g>
<!-- CGImage&#45;&gt;CIImage -->
<g id="edge4" class="edge">
<title>CGImage&#45;&gt;CIImage</title>
<path fill="none" stroke="#000000" d="M286.2352,-108.89C294.833,-107.5739 303.4609,-106.1672 311.6863,-104.6968 314.8558,-104.1302 318.0888,-103.528 321.351,-102.9006"/>
<polygon fill="#000000" stroke="#000000" points="322.0605,-106.3281 331.1905,-100.9529 320.7012,-99.4614 322.0605,-106.3281"/>
</g>
<!-- CIImage&#45;&gt;CGImage -->
<g id="edge5" class="edge">
<title>CIImage&#45;&gt;CGImage</title>
<path fill="none" stroke="#ff0000" d="M329.8616,-81.4533C321.3551,-81.7015 312.7817,-82.4369 304.6863,-83.8968 300.0371,-84.7351 295.3174,-85.7907 290.5951,-87.0077"/>
<polygon fill="#ff0000" stroke="#ff0000" points="289.6074,-83.6495 280.9201,-89.7142 291.4933,-90.3907 289.6074,-83.6495"/>
<text text-anchor="middle" x="308.1863" y="-87.8968" font-family="Times,serif" font-size="14.00" fill="#ff0000">2</text>
</g>
</g>
</svg>
